<svg width="52px" height="49px" viewBox="0 0 52 49" version="1.1" xmlns="http://www.w3.org/2000/svg" xmlns:xlink="http://www.w3.org/1999/xlink">
	<path d="M50.3402,21.6885 L27.3684,0.7567 C26.3601,-0.1622 24.8396,-0.1621 23.8317,0.7566 L0.8598,21.6886 C0.0521,22.4246 -0.2147,23.5586 0.1799,24.5775 C0.5746,25.5964 1.5356,26.2547 2.6283,26.2547 L6.2973,26.2547 L6.2973,47.2268 C6.2973,48.0583 6.9715,48.7326 7.803,48.7326 L20.3944,48.7326 C21.2259,48.7326 21.9001,48.0584 21.9001,47.2268 L21.9999956,39.5 L29.4999956,39.5 L29.3003,47.2269 C29.3003,48.0584 29.9745,48.7326 30.806,48.7326 L43.3968,48.7326 C44.2283,48.7326 44.9025,48.0585 44.9025,47.2269 L44.9025,26.2547 L48.5722,26.2547 C49.6648,26.2547 50.6259,25.5963 51.0206,24.5775 C51.4147,23.5585 51.1479,22.4246 50.3402,21.6885 Z" id="Path"></path>
</svg>