<?xml version="1.0" encoding="UTF-8"?>
<svg width="512px" height="464px" viewBox="0 0 512 464" version="1.1" xmlns="http://www.w3.org/2000/svg" xmlns:xlink="http://www.w3.org/1999/xlink">
    <!-- Generator: Sketch 56.3 (81716) - https://sketch.com -->
    <title>feed</title>
    <desc>Created with Sketch.</desc>
    <g id="Design" stroke="none" stroke-width="1" fill="none" fill-rule="evenodd">
        <g id="feed" fill="#000000" fill-rule="nonzero">
            <path d="M256.001,192.8 C221.152,192.8 192.801,221.152 192.801,256 C192.801,290.849 221.153,319.2 256.001,319.2 C290.85,319.2 319.2,290.848 319.2,256 C319.2,221.152 290.849,192.8 256.001,192.8 Z" id="Path"></path>
            <path d="M256,96.4 C167.996,96.4 96.4,167.997 96.4,256 C96.4,309.444 122.809,356.834 163.258,385.815 C172.422,379.131 182.243,373.495 192.534,368.961 C153.096,346.715 126.4,304.419 126.4,256 C126.4,184.539 184.539,126.4 256.001,126.4 C327.463,126.4 385.601,184.539 385.601,256 C385.601,304.42 358.906,346.715 319.466,368.961 C329.757,373.494 339.578,379.131 348.742,385.815 C389.192,356.835 415.6,309.445 415.6,256 C415.6,167.996 344.004,96.4 256,96.4 Z" id="Path"></path>
            <path d="M437.017,74.981 C388.663,26.629 324.377,0 256.001,0 C187.621,0 123.334,26.629 74.981,74.98 C26.629,123.334 0,187.622 0,256 C0,304.987 13.885,352.603 40.152,393.697 C57.721,421.183 80.239,444.927 106.441,463.804 C109.65,454.064 113.805,444.675 118.831,435.766 C63.168,393.559 30,327.967 30,256 C30,131.383 131.384,30 256.001,30 C380.618,30 482.001,131.383 482.001,256 C482.001,327.966 448.833,393.558 393.17,435.766 C398.194,444.676 402.351,454.064 405.56,463.804 C431.761,444.927 454.279,421.184 471.848,393.698 C498.116,352.603 512.001,304.988 512.001,256.001 C512.001,187.622 485.371,123.334 437.017,74.981 Z" id="Path"></path>
        </g>
    </g>
</svg>