
<svg width="40px" height="50px" viewBox="0 0 40 50" version="1.1" xmlns="http://www.w3.org/2000/svg" xmlns:xlink="http://www.w3.org/1999/xlink">
	<path d="M19.9997,49.8853 C16.7699,49.8853 14.15,47.2678 14.15,44.0356 L25.8485001,44.0356 C25.8491,47.2678 23.2295,49.8853 19.9997,49.8853 Z M39.7667,38.17 L39.7652,38.17 L39.7652,38.1697 C39.7652,40.3327 38.0123,40.4752 35.8508,40.4752 L4.148,40.4752 C1.9856,40.4752 0.2342,40.3327 0.2342,38.1697 L0.2342,37.7971 C0.2342,36.2416 1.1477,34.9096 2.4602,34.2778 L3.7028,23.5519 C3.7028,15.6997 9.2558,9.1459 16.6484,7.5997 L16.6484,3.4357 C16.6484,1.5847 18.1493,0.0838 20.0012,0.0838 C21.8522,0.0838 23.3531,1.5847 23.3531,3.4357 L23.3531,7.6 C30.7457,9.1459 36.2987,15.6991 36.2987,23.5522 L37.5413,34.2796 C38.8538,34.9123 39.7667,36.2419 39.7667,37.7974 L39.7667,38.17 Z" id="Shape"></path>
</svg>