<svg width="42px" height="41px" viewBox="0 0 42 41" version="1.1" xmlns="http://www.w3.org/2000/svg" xmlns:xlink="http://www.w3.org/1999/xlink">
	<path d="M39.5,32 L32.061,24.627 C33.258,22.275 33.906,19.665 33.906,16.951 C33.906,12.423 32.141,8.166 28.94,4.965 C25.739,1.763 21.481,0 16.953,0 C12.426,0 8.167,1.763 4.966,4.965 C1.765,8.167 0,12.424 0,16.952 C0,21.48 1.764,25.737 4.966,28.938 C8.167,32.14 12.425,33.903 16.952,33.903 C19.666,33.903 22.277,33.257 24.627,32.061 L32,38.5 C33.029,39.529 34.65,40.5 36,40.5 C37.35,40.5 38.47,39.529 39.5,38.5 C41.563,36.437 41.562,34.062 39.5,32 Z M9.444,24.459 C7.439,22.453 6.335,19.788 6.335,16.952 C6.335,14.116 7.439,11.45 9.445,9.444 C11.45,7.439 14.116,6.334 16.952,6.334 C19.788,6.334 22.454,7.438 24.46,9.444 C26.465,11.449 27.57,14.115 27.57,16.951 C27.57,19.787 26.465,22.453 24.46,24.459 C22.454,26.464 19.787,27.568 16.952,27.568 C14.117,27.568 11.451,26.465 9.444,24.459 Z" id="Shape"></path>
</svg>